<svg width="179" height="225" viewBox="0 0 179 225" fill="none" xmlns="http://www.w3.org/2000/svg">
<path d="M0 112.5C0 115.484 1.17868 118.345 3.27675 120.455C5.37481 122.565 8.22039 123.75 11.1875 123.75H96.1006L70.3694 149.513C69.3208 150.558 68.4885 151.803 67.9205 153.174C67.3526 154.544 67.0601 156.015 67.0601 157.5C67.0601 158.985 67.3526 160.456 67.9205 161.826C68.4885 163.197 69.3208 164.442 70.3694 165.487C71.4094 166.542 72.6467 167.379 74.01 167.95C75.3733 168.521 76.8356 168.815 78.3125 168.815C79.7894 168.815 81.2517 168.521 82.615 167.95C83.9783 167.379 85.2156 166.542 86.2556 165.487L131.006 120.488C132.024 119.418 132.823 118.156 133.355 116.775C134.474 114.036 134.474 110.964 133.355 108.225C132.823 106.844 132.024 105.582 131.006 104.513L86.2556 59.5125C85.2125 58.4636 83.9742 57.6315 82.6113 57.0638C81.2484 56.4962 79.7877 56.204 78.3125 56.204C76.8373 56.204 75.3766 56.4962 74.0137 57.0638C72.6508 57.6315 71.4125 58.4636 70.3694 59.5125C69.3263 60.5614 68.4988 61.8067 67.9343 63.1772C67.3698 64.5477 67.0792 66.0166 67.0792 67.5C67.0792 68.9834 67.3698 70.4523 67.9343 71.8228C68.4988 73.1933 69.3263 74.4386 70.3694 75.4875L96.1006 101.25H11.1875C8.22039 101.25 5.37481 102.435 3.27675 104.545C1.17868 106.655 0 109.516 0 112.5ZM145.438 0H33.5625C24.6612 0 16.1244 3.55579 9.83023 9.88515C3.53604 16.2145 0 24.7989 0 33.75V67.5C0 70.4837 1.17868 73.3452 3.27675 75.455C5.37481 77.5647 8.22039 78.75 11.1875 78.75C14.1546 78.75 17.0002 77.5647 19.0983 75.455C21.1963 73.3452 22.375 70.4837 22.375 67.5V33.75C22.375 30.7663 23.5537 27.9048 25.6517 25.7951C27.7498 23.6853 30.5954 22.5 33.5625 22.5H145.438C148.405 22.5 151.25 23.6853 153.348 25.7951C155.446 27.9048 156.625 30.7663 156.625 33.75V191.25C156.625 194.234 155.446 197.095 153.348 199.205C151.25 201.315 148.405 202.5 145.438 202.5H33.5625C30.5954 202.5 27.7498 201.315 25.6517 199.205C23.5537 197.095 22.375 194.234 22.375 191.25V157.5C22.375 154.516 21.1963 151.655 19.0983 149.545C17.0002 147.435 14.1546 146.25 11.1875 146.25C8.22039 146.25 5.37481 147.435 3.27675 149.545C1.17868 151.655 0 154.516 0 157.5V191.25C0 200.201 3.53604 208.786 9.83023 215.115C16.1244 221.444 24.6612 225 33.5625 225H145.438C154.339 225 162.876 221.444 169.17 215.115C175.464 208.786 179 200.201 179 191.25V33.75C179 24.7989 175.464 16.2145 169.17 9.88515C162.876 3.55579 154.339 0 145.438 0Z" fill="white"/>
</svg>
